<?xml version="1.0" encoding="UTF-8"?>
<svg id="Layer_2" data-name="Layer 2" xmlns="http://www.w3.org/2000/svg" viewBox="0 0 89.81 55.31">
  <defs>
    <style>
      .cls-1 {
        fill: #fff;
      }
    </style>
  </defs>
  <g id="Layer_1-2" data-name="Layer 1">
    <path class="cls-1" d="m84.13,0H5.68C2.55,0,0,2.55,0,5.68v43.94c0,3.13,2.55,5.68,5.68,5.68h78.44c3.13,0,5.68-2.55,5.68-5.68V5.68c0-3.13-2.55-5.68-5.68-5.68Zm-27.81,27.27l30.55-22.11c.03.17.05.34.05.52v43.73l-30.6-22.15ZM84.13,2.9c.26,0,.52.05.76.12l-35.03,25.35c-2.69,1.94-7.09,2.04-9.62.21L4.92,3.01c.24-.07.49-.12.76-.12h78.44ZM2.9,49.41V5.68c0-.18.02-.35.05-.52l30.55,22.11L2.9,49.41Zm2.78,3c-.52,0-1.01-.15-1.43-.41l31.71-22.95,2.58,1.86c1.73,1.25,3.97,1.88,6.25,1.88,2.41,0,4.85-.7,6.77-2.09l2.28-1.65,31.71,22.95c-.42.25-.9.41-1.43.41H5.68Z"/>
  </g>
</svg>