<?xml version="1.0" encoding="UTF-8"?>
<svg id="Layer_2" data-name="Layer 2" xmlns="http://www.w3.org/2000/svg" viewBox="0 0 1920 1920">
  <defs>
    <style>
      .cls-1 {
        fill: #fff1eb;
      }

      .cls-2 {
        fill: #ff5f4a;
      }
    </style>
  </defs>
  <g id="Layer_1-2" data-name="Layer 1">
    <g>
      <rect class="cls-1" width="1920" height="1920"/>
      <g>
        <g>
          <path class="cls-2" d="m416.16,537.96c.1-2.84,1.29-5.63,3.57-8.38,2.32-2.8,4.87-4.48,7.64-5.06,2.77-.58,5.36.14,7.78,2.14,2.37,1.97,3.52,4.36,3.44,7.17-.08,2.81-1.28,5.62-3.6,8.42-2.28,2.75-4.81,4.43-7.58,5.05-2.77.62-5.36-.07-7.78-2.07-2.41-2-3.57-4.42-3.47-7.26Z"/>
          <path class="cls-2" d="m472.1,534.83c-3.75-2.53-11.05-10.44-19.32-18.45-8.57-8.3-16.77-14.32-18.89-18.17-2.81-5.07,1.59-8.4,13.6-20.79,14.77-15.24,16.01-17.48,21.26-12.4,3.5,3.39,3.41,5.65-.18,9.35-4.29,4.54-11.09,11.2-16.73,16.78l10.16,9.43c4.03-4.52,7.81-9.14,10.36-11.78,4.14-4.27,6.24-4.99,10.53-.84,3.86,3.74,3.51,6.03-.77,10.57-2.42,2.49-6.92,6.41-11.17,10.44l12.91,12.51c3.08,2.85,2.63,4.89-1.86,9.52-4.28,4.41-6.74,5.75-9.89,3.81Z"/>
          <path class="cls-2" d="m517.71,489.52c-4.43-3.31-9.08-10.92-16.76-20.15-8.54-10.27-15.1-15.52-16.78-20.02-1.84-4.7.56-8.01,13.67-18.91,16.69-13.88,27.69-17.56,38.38-4.71,6.61,7.94,5.85,15.56.85,22.89,11.02,1,19.06.43,22.55,4.63,2.31,2.78,1.29,5.59-3.28,9.39-5.41,4.5-9.39,4.53-14.02,2.37-5.24-2.42-10.45-4.2-16.27-5.15-2.13,1.77-4.22,3.29-6.34,4.62,4.48,5.23,8.42,9.82,10.33,12.27,3.04,3.81,2.06,6.04-2.67,9.97-4.27,3.55-6.81,4.68-9.67,2.79Zm-5.21-33.25c2.6-1.83,4.84-3.48,6.85-5.26,6.12-5.2,8.72-9.98,4.8-14.7-4.3-5.17-9.43-4.83-17.36,1.76-1.91,1.58-3.76,3.23-5.66,5.14,2.87,3.3,7.1,8.08,11.37,13.05Z"/>
          <path class="cls-2" d="m558.67,422.33c-11.95-18.48-11.99-30.06,9.99-44.26,21.65-13.99,32.02-9.09,43.96,9.39,11.54,17.85,11.52,29.15-10.12,43.15-22.07,14.26-32.25,9.64-43.83-8.27Zm37.81-1.23c9.58-6.19,7.98-12.86.87-23.86-7.48-11.57-12.95-15.83-22.52-9.64-9.83,6.35-8.47,13.38-.99,24.94,7.11,11,12.74,14.97,22.65,8.56Z"/>
          <path class="cls-2" d="m642.57,398.71c-5.22-8.96-17.32-35.76-19.97-44.63-1.86-4.88-.48-7.76,6.51-11.06,5.11-2.41,7.87-3.07,11.75-.44,7.12,5.09,14.42,10.56,21.41,15.62l1.18-25.82c.47-5.05,2.96-6.97,8.25-9.47,5.92-2.79,8.95-2.65,11.75,2.35,4.41,6.56,18.72,36.4,21.96,44.43,1.65,3.96-.34,6.01-5.45,8.43-6.19,2.92-8.55,2.55-10.45-1.47-2.47-5.24-7.37-16.77-13.61-30.92-.07,6.81-.32,13.25-.58,19.22-.23,4.38-2.26,6.36-6.29,8.27-4.12,1.95-7.24,2.31-10.72-.42-4.61-3.49-9.77-7.46-15.15-11.42,6.97,14.54,12.85,25.61,14.97,30.09,1.94,4.1.77,6.05-5.51,9.01-4.93,2.33-7.84,2.21-10.04-1.76Z"/>
          <path class="cls-2" d="m746.07,328.38c-5.64-21.27-2.09-32.29,23.21-38.99,24.92-6.6,33.26,1.27,38.9,22.54,5.44,20.54,1.93,31.29-22.99,37.89-25.4,6.73-33.65-.82-39.12-21.44Zm36.33,10.53c11.02-2.92,11.57-9.76,8.21-22.42-3.53-13.32-7.41-19.06-18.43-16.14-11.31,3-12.2,10.1-8.67,23.41,3.36,12.67,7.48,18.18,18.89,15.16Z"/>
          <path class="cls-2" d="m829.97,307.53c-1.47-10.14-3.35-21.08-3-26.63.2-3.67,2.45-4.82,8.34-5.62,7.07-.96,8.92.15,9.5,4.39.93,7.59.91,17.08,2.48,27.97,1.81,11.88,4.4,16.27,14.03,14.97,9.53-1.29,10.88-6.13,9.28-17.95-1.51-11.15-3.62-20.11-4.86-27.82-.68-4.31.72-5.78,7.79-6.73,6.39-.86,8.58-.14,9.75,3.26,1.51,5.22,2.79,16.15,4.19,26.56,2.58,19.82,1.18,30.95-24.46,34.42-26.92,3.64-30.33-6.75-33.04-26.81Z"/>
          <path class="cls-2" d="m913.31,324.77c-1.38-5.35-.23-14.19-.42-26.2-.22-13.35-2.04-21.56-.52-26.12,1.51-4.81,5.46-5.88,22.51-6.16,21.71-.35,32.58,3.67,32.86,20.39.17,10.33-5.2,15.79-13.69,18.37,7.96,7.68,14.58,12.28,14.67,17.74.06,3.61-2.5,5.17-8.44,5.26-7.04.11-10.15-2.36-12.41-6.94-2.56-5.17-5.51-9.82-9.45-14.21-2.78.04-5.36-.08-7.84-.38.21,6.88.41,12.93.36,16.04-.02,4.87-2.18,6-8.33,6.1-5.55.09-8.24-.62-9.29-3.88Zm16.78-29.17c3.18.2,5.96.32,8.63.2,8.03-.21,13.05-2.31,12.95-8.44-.11-6.72-4.32-9.67-14.63-9.51-2.48.04-4.96.16-7.63.46.17,4.37.47,10.75.68,17.29Z"/>
          <path class="cls-2" d="m1054.73,332.04c-3.21-6.84-8.18-13.25-16.13-20.61-.9,7.51-1.29,13.65-1.78,17.65-.55,3.74-2.59,4.71-9.36,3.73-6.28-.92-8.28-2.31-8.57-5.83-.22-5.38,2.35-14.68,4.01-26.07,1.86-12.72,2.25-21.57,3.48-25.89,1.07-3.24,2.48-4.65,9.74-3.59,6.57.96,8.45,2.51,7.89,6.33-.69,4.06-2.04,11.25-3.5,19.86,9.67-2.41,17.93-8.16,22.04-16.39,2.03-4.29,3.6-5.42,10.07-4.47,6.28.92,8.08,2.28,7.53,6.11-1.52,10.39-14.43,19.88-29.14,23.84,13.23,11.61,23.46,19.81,22.2,27.77-.53,3.66-3.48,4.59-9.17,3.75-5.59-.82-7.48-2.28-9.32-6.2Z"/>
          <path class="cls-2" d="m1089.2,339.06c.31-4.76,3.23-13.74,6.21-26.41,2.71-11.53,3.94-20.65,6.12-25.57,1.21-2.56,3.38-3.52,9.46-2.09,5.79,1.36,7.41,3.12,7.45,5.98-.34,5.79-3.29,13.55-6.12,25.57-3.02,12.84-4.25,22.39-6.18,26.68-1.39,2.87-3.37,3.52-9.36,2.11-5.98-1.41-7.62-3.09-7.59-6.27Z"/>
          <path class="cls-2" d="m1138.15,352.54c.26-4.06,4.66-15.18,8.33-26.62,2.08-6.48,3.79-11.49,5.29-15.51-5.31-1.62-9.84-3.07-12.57-4.3-3.25-1.57-3.84-3.61-2.48-7.85,1.28-4,2.96-5.32,6.72-4.72,4.43.8,12.07,3.61,20.85,6.42,8.78,2.82,15.96,4.77,20.86,7.04,3.08,1.43,3.8,3.07,2.34,7.63-1.31,4.08-2.84,5.62-6.37,4.93-2.96-.51-7.75-2.13-12.82-3.85-1.12,4.14-2.64,9.21-4.7,15.61-3.7,11.52-6.61,23.2-8.69,26.77-1.51,2.43-3.39,2.79-9.34.88-5.95-1.91-7.62-3.5-7.41-6.44Z"/>
          <path class="cls-2" d="m1194.52,343.97c9.72-21.97,21.88-25.68,41.37-17.06,16.14,7.14,21.39,15.62,17.55,25.77-1.63,4.42-4.19,6.04-9.36,3.76-9.34-4.13,1.22-13.05-12.38-19.07-9.34-4.13-15.16.46-20.57,12.67-5.95,13.44-4.5,19.96,4.66,24.01,14.78,6.54,13.22-7.83,22.56-3.7,4.9,2.17,5.42,5.15,3.2,9.68-4.18,8.71-12.63,12.14-31.04,3.99-21.04-9.31-24.53-20.77-16-40.05Z"/>
          <path class="cls-2" d="m1252.88,399.63c.91-4.05,7.91-13.67,13.62-23.27,6.49-10.9,11.52-20.91,14.13-23.36,2.14-2.05,4.28-2.15,9.99,1.25,5.62,3.35,7.07,5.38,5,9.04s-5.75,9.28-10.52,16.91c7.07,4.21,13.46,8.01,20.58,12.14,4.38-7.75,7.48-13.73,9.71-17.29,2.15-3.61,4.45-3.41,10.5.19,5.62,3.35,6.47,5.41,5.69,8.08-1,3.61-7.48,12.95-13.7,23.42-5.93,9.96-11.05,20.7-14.09,23.29-2.48,2.24-4.83,1.33-9.69-1.56-6.05-3.6-6.94-5.59-4.79-9.2,1.8-3.23,5.45-8.78,9.88-16.02-7.24-4.11-13.63-7.92-20.45-12.17-4.25,7.34-7.35,13.32-9.28,16.37-2.23,3.56-4.24,3.83-10.55.08-4.77-2.84-6.81-4.64-6.03-7.89Z"/>
          <path class="cls-2" d="m1323.58,442.47c1.64-4.45,7.79-11.38,15.07-20.94,7.38-9.69,12.24-17.71,15.99-20.34,4.91-3.34,8.7-.13,23.21,10.92,16.33,12.44,18.32,13.74,14.56,18.69-3,3.94-5.34,4.06-10.46.16-3.94-3-10.81-8.55-18.25-14l-7.38,9.69c5.78,4.19,11.13,7.64,14.37,10.1,4.02,3.06,4.65,5.02,1.24,9.5-3.36,4.41-5.62,4.27-9.41,1.39-3.05-2.22-8.03-6.64-13.6-11.1-2.75,3.61-5.26,7.08-7.42,10.08,6.42,4.99,14.24,10.43,18.97,14.03,4.34,3.3,5.23,5.25,2.02,9.46-4.17,5.48-6.52,3.16-23.01-9.39-12.54-9.55-17.76-13-15.9-18.23Z"/>
          <path class="cls-2" d="m1402.25,503.62c2.89-12.47,5.99-24.74,9.02-37.07-13.14,14.29-18.88,21-23.45,26.05-3.55,3.7-5.95,3.49-10.39-.76-4.01-3.84-4.71-6.26-2.5-9.72,1.9-2.84,7.5-7.82,14.24-14.86,8.83-9.22,15.54-17.8,20.96-21.45,3.84-2.72,7.25-1.55,12.19,3.19,5.08,4.87,4.9,8.07,3.1,16.11-3.21,13.1-6.08,25.12-9.15,37.07,10.78-11.54,19.98-22.86,23.93-26.98,3.54-3.7,5.89-3.43,10.26.76,4.08,3.91,4.9,6.21,2.57,9.79-2.6,4.14-10.67,11.42-17.93,19-7.21,7.52-13.63,14.51-17.59,17.35-3.62,2.35-6.79,1.64-11.44-2.82-5.23-5.01-5.33-8.48-3.82-15.64Z"/>
          <path class="cls-2" d="m1460.56,511.92c2.78.55,5.35,2.17,7.7,4.86,2.39,2.74,3.65,5.52,3.77,8.35.12,2.83-.99,5.27-3.36,7.33-2.32,2.02-4.86,2.77-7.63,2.24-2.76-.53-5.34-2.16-7.73-4.9-2.35-2.69-3.6-5.45-3.77-8.29-.17-2.83.93-5.28,3.29-7.34,2.36-2.06,4.94-2.81,7.72-2.26Z"/>
        </g>
        <g>
          <path class="cls-2" d="m614.71,1530.66c2.81-.38,5.77.33,8.86,2.12,3.14,1.82,5.23,4.05,6.27,6.69,1.03,2.64.76,5.31-.81,8.02-1.54,2.67-3.71,4.2-6.5,4.59-2.79.39-5.75-.32-8.9-2.14-3.09-1.79-5.17-4-6.25-6.63-1.08-2.63-.83-5.3.75-8.01,1.57-2.71,3.76-4.26,6.58-4.63Z"/>
          <path class="cls-2" d="m640.22,1591.52c.82-3.99,6.71-14.39,11.93-25.21,2.95-6.13,5.34-10.85,7.38-14.63-5.04-2.33-9.33-4.4-11.86-6-3-2-3.3-4.11-1.37-8.12,1.82-3.78,3.66-4.86,7.31-3.75,4.27,1.41,11.45,5.24,19.76,9.24,8.31,4,15.15,6.93,19.68,9.86,2.86,1.84,3.34,3.57,1.26,7.88-1.86,3.86-3.59,5.17-6.99,4-2.86-.91-7.38-3.18-12.17-5.58-1.68,3.94-3.89,8.75-6.81,14.81-5.25,10.9-9.75,22.06-12.31,25.31-1.83,2.2-3.75,2.3-9.38-.42-5.63-2.71-7.07-4.52-6.45-7.4Z"/>
          <path class="cls-2" d="m697.33,1588.82c7.3-20.76,16.42-27.88,41.12-19.2,24.32,8.55,26.79,19.75,19.49,40.51-7.05,20.05-16,26.96-40.32,18.41-24.79-8.72-27.37-19.6-20.29-39.73Zm24.12,29.14c10.76,3.78,15.05-1.56,19.4-13.92,4.57-13,4.59-19.93-6.17-23.72-11.04-3.88-15.76,1.49-20.33,14.49-4.35,12.36-4.03,19.24,7.1,23.15Z"/>
          <path class="cls-2" d="m820.68,1652.18c-.44-3.23,1.49-10.83,2.69-18.89-6.5-11.79-12.94-25.03-14.23-34.38-.81-5.17.97-7.85,8.78-6.48,6.84,1.19,8.02,2.51,8.64,8.16,1.71,8.06,4.45,16.04,8.07,24.09,5.86-6.48,11.28-13.29,15.09-20.13,2.15-4.83,3.85-5.89,10.78-4.68,7.33,1.28,8.26,4,5.62,9.34-4.42,8.61-14.15,17.65-24.78,27.22-1.43,8.19-1.85,15.79-3.48,18.75-1.37,2.66-3.96,3.06-8.84,2.21-5.57-.97-7.86-2.23-8.35-5.21Z"/>
          <path class="cls-2" d="m878.67,1634.22c1.25-21.97,8.04-31.34,34.17-29.85,25.74,1.47,31.22,11.54,29.97,33.51-1.21,21.22-7.88,30.34-33.62,28.88-26.23-1.5-31.73-11.23-30.52-32.53Zm31.26,21.3c11.38.65,14.03-5.68,14.77-18.76.78-13.75-1.12-20.42-12.5-21.07-11.68-.67-14.73,5.81-15.51,19.56-.75,13.08,1.47,19.6,13.24,20.28Z"/>
          <path class="cls-2" d="m963.82,1637.36c-.75-10.22-1.86-21.26-1.11-26.78.46-3.65,2.78-4.64,8.72-5.02,7.12-.46,8.89.78,9.17,5.05.39,7.63-.3,17.11.5,28.08.96,11.97,3.24,16.54,12.94,15.92,9.6-.61,11.28-5.35,10.52-17.25-.72-11.23-2.19-20.31-2.89-28.1-.38-4.35,1.13-5.71,8.25-6.17,6.43-.41,8.57.46,9.49,3.94,1.13,5.31,1.64,16.31,2.31,26.79,1.18,19.96-1,30.96-26.83,32.6-27.11,1.73-29.78-8.87-31.07-29.08Z"/>
          <path class="cls-2" d="m1050.75,1656.76c-2.24-5.05-2.57-13.96-4.75-25.77-2.42-13.13-5.57-20.93-4.83-25.67.69-5,4.41-6.71,21.18-9.8,21.35-3.94,32.74-1.76,35.77,14.67,1.87,10.16-2.52,16.44-10.46,20.38,9.12,6.26,16.41,9.7,17.4,15.07.66,3.55-1.61,5.51-7.46,6.59-6.92,1.28-10.4-.65-13.38-4.79-3.38-4.67-7.06-8.78-11.67-12.45-2.73.5-5.3.8-7.79.92,1.35,6.76,2.54,12.69,3.01,15.76.79,4.81-1.16,6.28-7.21,7.39-5.46,1.01-8.23.75-9.8-2.29Zm11.73-31.55c3.17-.33,5.93-.67,8.54-1.23,7.88-1.54,12.49-4.44,11.38-10.47-1.22-6.61-5.86-8.83-16-6.96-2.44.45-4.86.98-7.45,1.71.89,4.28,2.24,10.52,3.53,16.95Z"/>
          <path class="cls-2" d="m1171.33,1627.74c-2.24-3.4-5.44-14.92-9.42-26.25-2.25-6.42-3.91-11.45-5.14-15.56-5.21,1.92-9.7,3.49-12.62,4.16-3.54.71-5.24-.56-6.72-4.77-1.39-3.96-.85-6.02,2.51-7.82,4.02-2.03,11.8-4.41,20.5-7.46,8.7-3.05,15.61-5.83,20.88-6.97,3.32-.72,4.89.15,6.47,4.67,1.42,4.04,1.12,6.19-2.11,7.77-2.67,1.38-7.47,2.98-12.55,4.67,1.61,3.98,3.45,8.94,5.67,15.28,4,11.42,8.73,22.49,9.22,26.59.26,2.85-1.02,4.28-6.92,6.34s-8.19,1.81-9.79-.66Z"/>
          <path class="cls-2" d="m1216.14,1609.42c-2.75-6.78-5.23-33.93-6.27-49.87-.69-6.82.82-9.67,10.51-14.23,9.87-4.64,12.79-3.79,17.61,1.09,11.98,11.26,30.88,30.68,34.1,36.59,1.93,4.1.75,6.24-5,8.94s-7.98,2.36-10.58-1.06l-4.62-5.62c-8.29,3.81-12.9,5.88-21.3,9.93l1.43,7.22c.98,4.18-.22,6.05-5.79,8.66-5.74,2.7-8.23,2.29-10.09-1.66Zm28.16-33.3c-5.6-6.55-11.68-13.17-19.09-20.08.74,9.96,1.91,18.97,3.3,27.5l15.79-7.43Z"/>
          <path class="cls-2" d="m1291.61,1572.61c-3.39-2.85-8.01-12.63-13.83-22.07-6.92-11.23-12.07-17.13-13.22-21.46-1.39-5.66,3.72-8.9,16.8-16.96,16.46-10.14,27.37-13.41,34.91-1.18,4.14,6.72,3.19,12.93-3.14,19.1,8.82-3.26,14.71-1.27,19.07,5.81,7.05,11.44-2.35,19.8-17.89,29.38-13,8.01-18.58,10.86-22.7,7.38Zm2.14-37.73c8.95-5.51,12.38-9.4,9.38-14.27-3.08-5.01-7.65-4.66-15.5.18-1.77,1.09-3.96,2.64-6.49,4.59,2.07,3.56,4.76,7.92,7.62,12.37,1.73-.97,3.63-2.04,4.98-2.87Zm15.23,21.7c7.51-4.63,11.32-8.65,8.02-14.02-2.91-4.72-8.22-3.52-17.05,1.82-1.52.94-3.33,2.15-5.06,3.32,2.78,4.51,5.42,8.8,7.54,12.42,2.46-1.12,4.27-2.14,6.55-3.54Z"/>
          <path class="cls-2" d="m1355.67,1530.43c-3.99-2.77-8.67-11.35-15.96-20.89-7.24-9.48-13.61-16.66-15.13-20.78-1.12-3.26.31-5.31,5.27-9.1,5.75-4.39,7.87-3.58,10.96.3,7.42,9.87,16.94,23.31,24.63,34.35,5.21-4.61,10.15-8.6,13.54-11.19,3.99-2.94,5.96-2.65,8.61.82,4.18,5.47,2.2,7.94-11.43,18.35-11.19,8.55-15.83,11.46-20.48,8.14Z"/>
          <path class="cls-2" d="m1405.56,1492.23c-4.1-2.38-9.87-9.64-18.03-18.45-8.27-8.94-15.34-15.1-17.29-19.25-2.44-5.41,1.37-8.59,14.75-20.99,15.06-13.94,16.69-15.68,20.92-11.12,3.37,3.64,3.08,5.96-1.64,10.34-3.64,3.37-10.28,9.18-16.94,15.57l8.27,8.94c5.12-4.97,9.44-9.66,12.42-12.42,3.71-3.44,5.75-3.72,9.57.41,3.77,4.07,3.24,6.27-.25,9.51-2.71,2.62-7.92,6.77-13.28,11.49,3.08,3.33,6.06,6.4,8.65,9.05,6.02-5.46,12.72-12.24,17.09-16.28,4-3.71,6.07-4.25,9.66-.36,4.68,5.05,1.99,6.97-13.21,21.05-11.57,10.71-15.87,15.26-20.7,12.53Z"/>
          <path class="cls-2" d="m1423.46,1419.24c.25-2.83,1.59-5.55,4.02-8.17,2.47-2.67,5.1-4.21,7.9-4.64,2.8-.43,5.35.42,7.65,2.55,2.26,2.09,3.28,4.54,3.04,7.34-.23,2.81-1.58,5.54-4.05,8.21-2.42,2.62-5.04,4.17-7.84,4.63-2.8.47-5.35-.36-7.65-2.49-2.3-2.13-3.33-4.61-3.07-7.44Z"/>
        </g>
        <g>
          <path class="cls-2" d="m1735.36,652.26c-27.42,43.26-77.04,71.62-118.81,79.12-35,6.28-63.93,1.47-64.04-17.96-.04-7.22,6.08-9.98,10.4-8.53,14.17,4.68,30.76,3.37,47.96.29,60.18-10.81,98.61-63.26,98.37-103.79-.22-36.64-25.59-65.42-82.71-55.16-81.81,14.68-136.27,84.31-153.9,151.61-.49.57-.96,1.17-1.4,1.84-12.19,18.85-23.78,32.6-42.21,35.91-20.88,3.75-30.15-4.04-30.26-23.47-.16-27.75,19.39-49.02,19.22-78.44-.16-27.76-18.11-47.88-66.01-39.28-29.48,5.28-55.81,22.8-79.02,50.3-9.15,11.08-13.47,9.63-15.35,2.76-6.26-18.89-23.54-30.79-53.63-25.39-27.02,4.85-51.52,20.92-74.13,44.99-19.55,21.29-33.12,14.27-33.23-4.6-.06-11.11-5.04-20.21-19.16-17.68-22.98,4.13-46.22,58.4-69.42,125-.15.18-.3.36-.43.55-14.61,22.08-31.17,32.79-49.03,36.04l-4.22.76c6.06-19.37,8.98-39.4,8.88-58.77-.43-69.92-39.83-88.43-90.27-79.44-75.01,13.42-134,83.67-157.16,153.15-1.4,4.21-2.67,8.42-3.8,12.61-.19.23-.39.46-.57.71-.22.22-.32.43-.54.76-13.42,20.78-36.69,34.96-58.88,38.86-29.44,5.3-47.41-12.56-47.52-38.64-.11-13.85,5.41-25.44,17.64-32.04,75.33-41.35,127.72-126.31,127.39-186.27-.22-38.86-21.21-51.74-52.49-46.11-58.99,10.61-92.97,76.74-133.56,191.79-7.79,20.89-9.63,30.09-26.19,34.09-11.69,3.25-23.92,5.41-30.74,6.71-10.39,1.84-21.54.43-12.45-22.84q.65-.65.65-1.19c10.93-26.95,21.21-54.98,29.66-80.96,23.05-59.64.11-91.13-82.26-76.31-132.59,23.81-226.75,120.68-226.21,215.6.32,42.75,26.95,76.85,77.28,67.86,59.53-10.72,91.24-64.18,79.99-86.59-13.42,2.38-23.38-8.12-23.49-23.6-.22-47.73,50.55-91.35,108.34-87.24-18.83,46.11-37.02,88.32-51.52,125.99-27.82,72.19-78.69,109.1-121.01,116.68-33.77,6.06-60.29-5.85-60.5-30.31,0-3.79-4.33-5.85-9.2-4.98-49.14,8.88-81.39,59.64-81.18,105.1.33,46.11,35.61,87.02,106.83,74.25,87.78-15.8,150.12-83.12,195.04-178.91,4.22-9.09,10.28-22.95,17.64-39.83,1.19-3.03,3.03-6.71,4.87-10.39,8.44-16.45,17.1-17.43,26.3-19.16,31.93-5.74,52.17-14.29,41.24,19.81l-.54,2.38c-12.12,35.5-14.4,63.1-14.29,87.56.22,43.29,28.68,61.48,72.3,53.68,54.66-9.85,92.43-55.52,118.19-97.84,1.79-2.94,3.52-5.87,5.19-8.77,8.84,43.41,45.43,63.77,93.46,55.19,46.11-8.33,89.51-40.59,120.03-83.78l7.36-1.41c24.56-4.37,44.04-15.02,59.71-28.62-.6,3.22-1.19,6.46-1.78,9.71-2.53,13.91-3.9,28.45-4.52,43.16-.95,22.21-.2,44.79.76,66.11,1.04,23,6.46,48.67,28.21,60.84,16.61,9.3,40.36,6.64,51.37-8.89,19.07-26.91,11.46-65.82,11.29-96.48-.13-23.76,1.05-48.04,2.96-71.72,3.71-45.89,15.13-108.03,69.31-117.76,14.13-2.54,23.37,2.48,23.46,17.47.16,28.3-30.32,71.55-30.08,113.73.22,36.64,21.17,44.55,49.41,39.48,46.06-8.27,54.48-40.33,54.35-63.65-.1-16.1-4.43-20.88-4.52-36.97-.24-41.63,30.19-93.22,65.81-99.61,14.13-2.53,23.38,2.48,23.45,15.24.13,22.76-25.44,64.57-25.19,106.76.18,31.65,13.85,56.42,53.16,49.36,53.1-9.53,89.06-60.2,113.17-104.35,8.47,45.49,41.89,76.52,104.89,65.21,71.24-12.79,136.06-72.2,189.57-172.38,6.7-11.76-17.97-23.99-27.71-8.92Zm-131.19-41.46c19.04-3.41,28.32,5.48,28.39,17.69.08,13.87-13.95,33.61-37.89,37.91-19.65,3.52-28.93-5.36-29-17.58-.09-14.99,14.56-33.73,38.51-38.03Zm-975.09,116.13c7.25-21.32,15.69-41.67,32.9-44.81,8.66-1.52,12.99,3.25,12.99,11.58.11,20.57-29.12,62.45-47.51,65.81-5.52.98-8.01-2.49,1.62-32.58Zm206.23,111.58c-23.38,4.22-32.04-8.12-32.15-24.24-.11-24.35,19.92-55.2,50-60.61,24.03-4.33,33.88,7.25,33.99,23.27.11,23.38-21.21,56.07-51.84,61.59Z"/>
          <path class="cls-2" d="m1716.77,859.95c-21.7-21.99-56.57-32.31-84.84-19.86-18.73,8.24-33.4,27.44-32.12,47.86,1.98,31.47,32.38,35.61,55.83,45.85,69.33,30.3,65.29,151.55,15.77,196.81-18.97,17.34-53.39,25.54-78.16,30.02-34.96,6.28-63.97,1.41-64.08-17.97,0-7.25,6.06-9.96,10.39-8.55,14.18,4.65,30.85,3.35,47.95.32,60.29-10.82,98.71-63.32,98.39-103.8-.22-36.69-25.54-65.48-82.69-55.2-81.72,14.72-136.16,84.21-153.8,151.53-.54.54-.97,1.19-1.52,1.95-12.12,19.91-27.38,33.23-48.27,37.02-27.06,4.87-33.99-16.13-13.31-60.4,22.98-57.74,47.82-115.14,70.68-172.64,4.65-11.47,6.6-24.14,5.63-36.58-.65-8.66-3.57-18.29-11.26-22.19-3.68-1.84-7.9-2.06-12.01-2.06-28.97,0-55.49,13.16-82.4,22.41-43.59,14.97-84.95,30.13-130.5,36.91-27.71,4.11-56.5,6.49-83.77,12.77-18.18,4.18-24.5,23.74-28.33,40.3-2.54,10.96-3.12,23.01,2.12,32.97,13.03,24.8,61.17,12.65,82.56,8.02,32.83-7.1,64.11-20.16,93.88-35.51,13.96-7.14,44.81-33.98,60.83-29.66,23.38,6.39,3.79,46.22-.54,61.37-1.84,6.06-4.33,26.09-12.66,27.6-16.02,2.92-13.64-24.24-62.78-15.37-76.31,13.64-124.69,83.12-145.47,151.64-12.23,20.02-27.49,33.34-48.38,37.02-27.06,4.87-33.88-16.13-13.21-60.4,13.31-34.64,29.12-54.66,29.01-75.77-.11-12.23-5.63-19.59-21.65-16.67-28.79,5.2-33.01,27.06-53.25,30.63-16.02,2.92-13.64-18.62-62.78-9.85-77.5,13.96-126.09,85.51-146.44,153.05-13.31,20.02-31.17,32.79-49.25,36.04-27.6,4.98-37.56-9.42-37.67-32.15-.22-27.28,6.17-55.63,14.07-81.61,12.45-41.56,45.24-70.79,85.07-86.37,8.66-3.36,18.73-5.74,27.06-1.62,4.22,2.06,7.47,5.52,11.26,8.33,11.26,8.44,27.17,10.28,40.05,4.65,31.28-13.42,46.22-62.56,37.12-92.87-4.65-15.48-15.26-30.09-30.63-35.07-10.28-3.25-21.43-1.95-32.04-.22-61.04,10.07-119.82,33.01-171.55,66.78-50.76,33.23-87.24,88.43-113,142.87-11.04-90.27-70.35-139.08-177.18-119.93-123.5,22.19-202.29,111.38-201.75,195.15.33,52.17,36.15,80.2,84.64,71.54,54.66-9.85,83.88-58.99,72.73-79.77-17.86,3.25-31.39-9.31-31.61-28.79-.11-34.96,26.73-60.29,56.28-65.59,26.3-4.76,42.43,8.44,42.54,37.88.43,59.96-62.24,177.29-148.17,192.77-35.72,6.39-62.13-5.52-62.34-29.98,0-3.9-4.33-5.85-9.2-4.98-49.14,8.77-81.39,59.64-81.18,105.1.22,46.11,35.61,87.02,106.83,74.25,104.34-18.72,196.12-105.2,235.52-292.89,2.49-11.04,8.55-17.1,17.1-18.62,8.01-1.52,14.83,2.27,14.94,23.92.32,51.09-34.96,119.71-34.74,160.73.11,22.73,10.07,33.23,48.71,26.3,20.35-3.68,42.43-14.83,53.25-55.2,39.07-147.53,57.91-179.24,79.45-183.14,7.36-1.3,11.69,1.84,11.69,10.17.11,22.19-42.43,92-42.1,155.32.32,50.55,23.81,76.85,69.27,68.73,47.19-8.55,80.85-49.46,104.66-89.51,3.79,41.56,25.11,66.13,62.99,59.42,43.62-7.9,80.31-50.55,104.56-99.9l2.49-.43c-7.14,47.3,10.93,79.12,53.25,71.55,41.24-7.47,69.6-44.27,92.32-84.75,3.46,38.53,25.33,63.64,69.92,55.63,37.45-6.71,72.84-49.25,97.74-98.71l2.49-.43c-6.49,47.3,13.96,78.58,53.25,71.54,46.76-8.33,77.17-54.66,101.2-101.31,8.77,45.03,42,75.66,104.56,64.4.54-.11.97-.22,1.51-.32,57.69-10.82,104.34-51.2,139.41-96.22,28.88-36.91,45.91-82.03,53.98-127.9,7.6-43.21,11.5-95.18-3.3-137.24-5.41-15.37-13.57-29.58-25-41.17Zm-135.87,180.1c18.94-3.46,28.25,5.41,28.36,17.64.11,13.85-13.96,33.66-37.88,37.88-19.7,3.57-29.01-5.3-29.01-17.53-.11-14.94,14.5-33.77,38.53-37.99Zm-651.69,219.18c-19.05,3.46-30.85-5.63-30.96-24.46-.11-24.46,20.02-55.31,51.95-61.05,19.59-3.46,31.93,5.41,32.04,23.7.22,23.38-21.11,56.07-53.04,61.8Zm316.91-56.93c-23.38,4.22-32.04-8.12-32.15-24.25-.11-24.35,20.02-55.2,50.11-60.61,23.92-4.33,33.77,7.25,33.88,23.38.11,23.27-21.21,56.07-51.84,61.48Z"/>
        </g>
        <g>
          <g>
            <path class="cls-2" d="m928.87,494.29c-.76.89-2.32.89-3.52,1.18-7.52,1.79-15.04,3.58-22.57,5.3-.77.18-1.8-.04-2.51-.43-6.35-3.5-12.21-7.63-16.49-13.63-4.87-6.83-5.43-14-1.32-21.36,6.53-11.66,16.46-17.51,29.9-17.71,2.62-.04,5.52-.95,7.76-2.33,10.24-6.32,20.82-11.72,32.82-13.75,8.43-1.42,16.61-.91,24.34,3.29,1.36.74,3.17.68,4.78.89,7.46.98,15.19,1.04,22.33,3.11,10.57,3.06,15.17,11.25,13.4,22.07-2.38,14.59-8.67,27.3-19.24,37.8-1.75,1.74-3.34,2-5.8,1.28-7.35-2.17-14.84-3.89-22.55-5.85,1.09-1.74,2.34-3.61,3.47-5.54,2.33-4.02,4.33-8.22,6.04-12.54,1.42-3.59,4.27-8.62,2.76-12.53-.61-1.57-2.32-2.86-3.94-2.38-1.01.3-1.73,1.18-2.3,2.06-2.37,3.61-3.36,7.87-4.61,11.95-1.31,4.29-3.26,7.87-5.51,11.72-2.76,4.74-6.18,7.67-12.4,6.83-2.77-.37-5.58-.4-8.37-.35-1.93.04-5.48.9-7.26.1-1.76-.79-2.18-4.48-2.6-6.17-.6-2.46-1-4.97-1.2-7.49-.18-2.4-.21-4.94-1.42-7.02-1.21-2.09-4.12-3.42-6.1-2.04-.98.69-1.51,1.89-1.62,3.08s.13,2.39.43,3.55c.94,3.65,2.38,7.17,3.12,10.87.28,1.42,1.05,4.27.42,5.65-.07.15-.15.28-.25.4Z"/>
            <path class="cls-2" d="m993.22,532.27c0,7.46.03,14.91-.01,22.37-.03,4.52-1.43,6.31-5.88,7.13-25.28,4.69-50.58,5.22-75.88.23-4.38-.86-5.83-2.64-5.84-7.21-.04-15.17,0-30.34-.03-45.51,0-1.76,0-3.11,2.27-3.71,26.54-6.99,53.12-8.97,79.94-1.38,4.08,1.15,5.87,2.71,5.55,7.27-.48,6.91-.12,13.88-.13,20.82Z"/>
            <path class="cls-2" d="m898.04,504.85c1.64,1.29.7,3.97-1.38,4.13-8.27.65-15.54.16-22.63-2.05-9.2-2.87-12.65-9.74-8.86-18.63,1.48-3.46,3.91-6.51,6.47-9.54.81-.95,2.34-.66,2.75.52,4.15,12.02,13.08,19.28,23.39,25.4.09.05.17.11.25.17Z"/>
            <path class="cls-2" d="m1006.53,501.27c9.02-11.24,14.95-23.68,17.68-37.66.29-1.49,2.23-1.87,3.06-.6,4.04,6.22,4.64,16.34.06,22.76-3.49,4.9-8.36,8.93-13.07,12.79-1.99,1.63-4.31,2.85-6.66,4.04-.84.42-1.66-.59-1.07-1.32Z"/>
          </g>
          <path class="cls-2" d="m827.97,500.11c-9,5.13-16.49,12.62-21.61,21.61-.87,1.53-3.06,1.53-3.94,0-5.13-9-12.61-16.49-21.53-21.62-1.52-.87-1.52-3.06,0-3.93,8.93-5.11,16.42-12.54,21.55-21.53.87-1.53,3.05-1.53,3.93,0,5.18,8.99,12.61,16.42,21.6,21.54,1.53.87,1.53,3.07,0,3.94Z"/>
          <path class="cls-2" d="m1113.31,500.11c-9,5.13-16.49,12.62-21.61,21.61-.87,1.53-3.06,1.53-3.94,0-5.13-9-12.61-16.49-21.53-21.62-1.52-.87-1.52-3.06,0-3.93,8.93-5.11,16.42-12.54,21.55-21.53.87-1.53,3.05-1.53,3.93,0,5.18,8.99,12.61,16.42,21.6,21.54,1.53.87,1.53,3.07,0,3.94Z"/>
        </g>
        <g>
          <path class="cls-2" d="m864.92,1521.08c-1.38-2.6-1.44-8.18-2.78-15.47-1.36-7.38-3.49-12.49-3.16-15.25.52-3.4,4.14-3.61,14.54-5.52,11.8-2.17,13.24-2.84,13.94,1,.53,2.9-.23,3.96-3.95,4.64-2.73.5-8.51,1.41-13.84,2.49.5,2.05,1.05,4.44,1.57,6.94,4.23-.83,7.83-1.84,10.09-2.31,2.85-.52,3.92.09,4.51,3.29.6,3.25-.35,4.29-3.03,4.78-1.98.36-5.87.72-10.13,1.45.5,2.71.91,5.28,1.31,7.44,4.83-.83,10.53-2.19,14.25-2.87,2.85-.52,3.95-.06,4.52,3.04.79,4.33-1.41,4.12-13.73,6.39-8.66,1.59-12.71,2.74-14.13-.05Z"/>
          <path class="cls-2" d="m900.66,1508.31c-.49-2.66.16-4.35,2.95-4.87,6.04-1.11,3.21,6.69,12.68,4.95,4.47-.82,6.01-2.58,5.56-5.04-.6-3.3-4.37-3.83-10.08-3.85-8.44-.18-12.73-2.24-13.95-8.89-1.42-7.73,3.66-11.16,13.77-13.01,10.63-1.95,15.28.45,16.43,6.04.48,2.61-.29,3.97-2.96,4.46-5.58,1.02-3.35-6.15-12.19-4.53-3.08.57-5.89,1.95-5.34,4.95.54,2.95,3.53,3.17,10.08,3.24,7.78.15,13.02,2.19,14.34,9.38,1.34,7.29-2.96,11.03-14.53,13.15-10.52,1.93-15.63.27-16.78-5.98Z"/>
          <path class="cls-2" d="m951.84,1505.73c-.98-2.06-1.69-9.87-2.97-16.86-.78-4.23-1.23-7-1.59-9.33-3.36.67-6.25,1.3-7.85,1.39-2.09.08-2.92-.84-3.4-3.45-.46-2.51-.08-3.7,1.96-4.38,2.49-.81,7.95-1.51,13.07-2.45,5.06-.93,10.16-2.22,12.97-2.33,1.9-.1,2.76.61,3.27,3.42.46,2.51.09,3.75-1.9,4.37-1.75.63-4.73,1.07-8,1.57.48,2.3.99,5.06,1.77,9.29,1.28,6.99,3.58,14.61,3.36,16.99-.14,1.55-1.1,2.19-4.82,2.87-3.72.68-5.09.43-5.85-1.11Z"/>
          <path class="cls-2" d="m982.69,1498.39c-1.31-3.22-1.34-7.95-2.52-14.4-1.18-6.45-2.75-11.05-2.78-14.81-.04-3.15,2.66-4.15,11.2-5.72,14.59-2.68,22.59-.94,25.39,14.32,2.93,15.95-4.22,19.55-21.25,22.68-6.57,1.21-8.96.93-10.05-2.07Zm21.36-18.78c-1.86-10.14-6.62-11.2-16.31-9.01,1.76,7.97,2.99,14.66,4.25,23.14,10.76-1.57,13.79-4.72,12.06-14.12Z"/>
          <path class="cls-2" d="m1027.75,1489.61c-.61-3.35,1.34-4.47,4.94-5.13,3.49-.64,5.67-.18,6.27,3.07.59,3.2-1.28,4.51-4.7,5.14-3.72.68-5.93.07-6.51-3.08Z"/>
          <path class="cls-2" d="m1055.57,1485.73c-.68-3.39-1.25-8.12-2.37-14.22-.82-4.48-1.31-7.44-1.99-10.83-6.11,1.07-7.57.32-8.14-2.78-.41-2.21.47-3.34,2.96-4.16,2.66-.9,6.13-1.63,9.32-2.22,3.83-.7,5.22-.04,5.79,2.4.58,2.49,1.21,8.89,2.3,14.84,1.17,6.35,2.56,11.34,3.06,15.06.38,2.37-.91,3.22-4.92,3.96-4.13.76-5.47.29-6.02-2.05Z"/>
          <path class="cls-2" d="m1105.65,1460.76c2.26,12.31-.23,19.02-13.54,21.46-9.41,1.73-14-.69-14.75-4.77-.37-2.02.49-3.19,2.7-3.6,3.66-.67,3.85,3.31,10.24,2.14,5.93-1.09,7.53-4.79,6.82-11.28-2.16,1.97-4.94,3.5-9.3,4.3-7.5,1.38-12.9-.89-14.41-9.11-1.53-8.32,2.81-12.52,12.74-14.35,10.58-1.94,16.81.58,19.49,15.2Zm-16.82,1.97c3.08-.57,5.39-2.06,7.18-4.07-1.6-6.12-4.35-8-9-7.15-4.36.8-6.01,3.24-5.35,6.83.67,3.64,3.05,5.14,7.17,4.38Z"/>
          <path class="cls-2" d="m1146.21,1453.32c2.26,12.31-.23,19.02-13.54,21.46-9.41,1.73-14-.69-14.75-4.77-.37-2.02.49-3.19,2.7-3.6,3.66-.67,3.85,3.31,10.24,2.14,5.93-1.09,7.53-4.79,6.82-11.28-2.16,1.97-4.94,3.5-9.3,4.3-7.5,1.38-12.9-.89-14.41-9.11-1.53-8.32,2.81-12.52,12.74-14.35,10.58-1.94,16.81.58,19.49,15.2Zm-16.82,1.97c3.08-.57,5.39-2.06,7.18-4.07-1.6-6.12-4.35-8-9-7.15-4.36.8-6.01,3.24-5.35,6.83.67,3.64,3.05,5.14,7.17,4.38Z"/>
          <path class="cls-2" d="m1157.32,1460.18c-.76-4.13.42-7.51,6.22-10-5.6-.4-7.81-3.3-8.51-7.09-1.27-6.94,2.9-10.71,13.59-12.67,10.93-2,15.83.2,17.09,7.04.7,3.79-.12,7.2-5.5,9.66,6.75.13,8.64,3.2,9.31,6.89,1.4,7.63-3.45,10.96-14.2,12.94-10.81,1.98-16.65.61-18-6.77Zm14.06-14.69c3.78-.69,6.1-2.44,5.46-5.94-.53-2.9-2.64-4.25-7.17-3.42-4.42.81-6.16,2.76-5.61,5.76.64,3.49,3.61,4.27,7.33,3.59Zm2.92,15.9c4.59-.84,6.45-2.81,5.89-5.86-.61-3.35-3.47-4.2-7.6-3.44-4.24.78-6.67,2.6-6.06,5.95.56,3.05,3,4.23,7.76,3.36Z"/>
        </g>
      </g>
    </g>
  </g>
</svg>