<?xml version="1.0" encoding="UTF-8"?>
<svg id="Layer_2" data-name="Layer 2" xmlns="http://www.w3.org/2000/svg" viewBox="0 0 133.47 32.23">
  <g id="Layer_1-2" data-name="Layer 1">
    <g>
      <path d="m19.51.44c.45-.04.77.1.96.44.2.34.29.85.29,1.53,0,.31-.03.68-.1,1.12-.07.44-.14.77-.24.99-1.01.09-1.51.14-2.52.26v16.67c0,.64-.38,1.23-.88,1.38,0,0,0,0-.01,0-.44.13-.86.22-1.23.27-.82.12-1.43.06-1.84-.18-.41-.25-.61-.9-.61-1.95v-.88c-.56.5-1.2.92-1.91,1.27-.72.35-1.58.64-2.59.88-.91.22-1.75.32-2.52.28-.76-.04-1.42-.22-1.96-.56-.54-.33-.96-.81-1.27-1.44-.31-.62-.46-1.39-.46-2.31,0-1.03.21-2,.64-2.9.43-.89,1.02-1.63,1.79-2.19-.86.07-1.53-.1-2.01-.54-.48-.44-.73-1.13-.73-2.1,0-.42.05-.84.15-1.25.1-.41.23-.77.38-1.08-.64.22-.96.33-1.59.56-.47.17-.79.11-.98-.18-.19-.29-.28-.79-.28-1.5,0-.28.03-.65.08-1.09.06-.44.13-.79.22-1.04C7.99,1.96,11.83,1.19,19.51.44Zm-8.72,9c.15.23.27.52.36.87.09.36.14.78.14,1.28s-.05.9-.14,1.3c-.09.4-.21.73-.36.99-.68.15-1.02.23-1.7.39-1.17.28-1.76.99-1.76,2.07,0,1.15.79,1.5,2.38,1.13.6-.14,1.23-.39,1.9-.75.67-.36,1.25-.85,1.73-1.48V5.45c-2.26.41-3.39.65-5.65,1.24-.45.59-.67,1.25-.67,1.98,0,.47.14.83.42,1.09.28.26.66.32,1.15.2.88-.22,1.32-.32,2.21-.51Z"/>
      <path d="m31.77.09c.45.02.77.21.96.57.2.36.29.88.29,1.56,0,.31-.03.67-.1,1.11,0,0,0,0,0,.01-.08.55-.49.93-.94.92-.84-.03-1.25-.04-2.09-.06.24.54.43,1.14.56,1.77.13.64.2,1.29.2,1.94,0,1.48-.38,2.79-1.13,3.95-.75,1.15-1.83,1.93-3.23,2.35.6,1.05,1.33,1.91,2.19,2.61.87.7,1.69,1.23,2.47,1.61-.02,1.08-.26,1.98-.71,2.72-.46.73-1.19,1.09-2.19,1.09-1.16,0-2.23-.55-3.21-1.67-.99-1.12-1.83-3.02-2.52-5.73-.74.05-1.29-.14-1.62-.59-.34-.44-.5-1.04-.5-1.79,0-.47.06-.92.2-1.36.13-.43.3-.81.5-1.14.2.03.48.06.82.08.34.02.7.02,1.08,0,1.06-.06,1.85-.37,2.38-.95.52-.58.78-1.36.78-2.35,0-.4-.04-.82-.13-1.25-.08-.43-.23-.86-.43-1.28-2.19.06-3.29.13-5.48.33-.47.04-.79-.1-.98-.45-.19-.34-.28-.87-.28-1.57,0-.28.03-.64.08-1.07.06-.43.13-.75.22-.98C24.1-.04,26.66-.08,31.77.09Z"/>
      <path d="m60.64,3.86c.45.08.77.32.96.71.2.39.29.93.29,1.61,0,.31-.03.67-.1,1.09-.07.42-.14.73-.24.92-4.05-.77-6.07-1.16-10.12-1.82v2.82c.41-.24.88-.4,1.4-.47.52-.08,1.12-.06,1.79.06.73.13,1.41.4,2.05.83.64.42,1.21.97,1.7,1.65.49.68.88,1.48,1.17,2.4.29.92.43,1.96.43,3.11s-.14,2.04-.42,2.81c-.28.77-.64,1.4-1.09,1.88-.45.48-.96.81-1.55.98-.59.18-1.19.21-1.8.1-.86-.15-1.51-.49-1.97-1.03-.46-.54-.68-1.25-.68-2.14,0-.73.15-1.35.45-1.86.24.11.47.19.7.23.45.08.83-.05,1.16-.38.33-.33.49-.86.49-1.59s-.18-1.33-.55-1.81c-.36-.47-.84-.76-1.44-.87-.39-.07-.74-.05-1.05.05-.31.1-.57.26-.8.48v9.42c0,.64-.38,1.12-.88,1.12h-.01c-.45,0-.86-.03-1.23-.09-.82-.13-1.43-.38-1.84-.75-.41-.38-.61-1.09-.61-2.15v-1.09c-.41.25-.88.42-1.41.53-.53.1-1.15.11-1.86.02-.73-.09-1.42-.32-2.07-.7-.65-.38-1.23-.89-1.72-1.54-.49-.65-.89-1.42-1.19-2.32-.3-.9-.45-1.92-.45-3.07,0-1.08.14-2.03.43-2.83.29-.81.67-1.47,1.13-1.97.47-.51,1-.87,1.59-1.09.6-.22,1.21-.29,1.84-.21.95.12,1.65.46,2.11,1.01.46.55.68,1.26.68,2.1,0,.35-.04.7-.13,1.04-.08.34-.19.62-.32.84-.09-.06-.21-.11-.34-.15-.13-.04-.3-.08-.53-.1-.03,0-.06,0-.09,0-1.12.04-1.67.71-1.67,2,0,.73.19,1.33.57,1.8.38.47.87.74,1.47.82.43.06.8.02,1.12-.11.32-.13.59-.32.81-.57V5.67c-3.74-.54-5.62-.76-9.36-1.07-.47-.04-.79-.24-.98-.62-.19-.38-.28-.92-.28-1.63,0-.28.03-.63.08-1.05,0,0,0,0,0-.01.07-.54.46-.91.9-.87,9.36.75,14.05,1.67,23.41,3.45Z"/>
      <path d="m68.83,5.44c.45.09.77.33.96.72.2.39.29.93.29,1.61,0,.31-.03.67-.1,1.09,0,.02,0,.04,0,.05-.08.52-.47.82-.9.74-.74-.14-1.11-.22-1.85-.36v16.68c0,.64-.38,1.11-.88,1.09,0,0,0,0-.01,0-.45-.02-.86-.06-1.23-.13-.82-.16-1.44-.44-1.84-.83-.41-.4-.61-1.12-.61-2.18v-15.51c-.64-.12-.96-.18-1.59-.31-.47-.09-.79-.33-.98-.73-.19-.4-.28-.95-.28-1.66,0-.28.03-.63.08-1.04.06-.41.13-.72.22-.91,3.49.66,5.23,1.01,8.72,1.68Z"/>
      <path d="m89.09,20.35c0,.54.17.99.5,1.35.34.36.75.57,1.26.63.71.08,1.3-.06,1.79-.43v-8.43c-3.74-.4-5.62-.67-9.36-1.26.32.54.56,1.15.73,1.81.17.66.25,1.3.25,1.91,0,1.65-.32,2.92-.96,3.83-.64.91-1.47,1.49-2.47,1.75.52,1.17,1.31,2.16,2.36,2.96,1.05.8,2.28,1.39,3.67,1.75.09.44.14.89.14,1.36,0,.99-.23,1.74-.68,2.26-.46.52-1.15.71-2.08.57-.88-.14-1.69-.46-2.45-.97-.75-.51-1.44-1.16-2.05-1.95-.61-.79-1.16-1.69-1.62-2.7-.47-1.01-.85-2.07-1.15-3.18-.52-.16-.96-.47-1.31-.91-.35-.44-.53-1.11-.53-2,0-.52.07-.97.21-1.35.14-.39.3-.69.49-.91.2.09.42.17.66.26.23.09.5.16.8.21.78.14,1.36-.04,1.73-.54.37-.5.56-1.12.56-1.88,0-.56-.08-1.12-.24-1.66-.16-.54-.38-1.01-.66-1.38-1.53-.27-2.3-.41-3.83-.69-.47-.09-.79-.33-.98-.73-.19-.4-.28-.95-.28-1.66,0-.28.03-.63.08-1.04,0,0,0,0,0-.01.08-.52.46-.85.9-.77,9.7,1.81,14.55,2.72,24.25,3.3.45.03.77.22.96.58.2.36.29.88.29,1.57,0,.31-.03.67-.1,1.11-.07.43-.14.75-.24.96-1.01-.05-1.51-.08-2.52-.16v16.68c0,.64-.38,1.15-.88,1.19,0,0,0,0-.01,0-.45.03-.86.04-1.23,0-.82-.07-1.43-.29-1.84-.65-.41-.36-.61-1.07-.61-2.13v-3c-.35.15-.74.24-1.16.28-.42.03-.89.02-1.41-.04-.65-.08-1.29-.29-1.9-.62-.61-.33-1.16-.78-1.65-1.36-.49-.57-.87-1.25-1.16-2.04-.29-.78-.43-1.67-.43-2.66,0-.92.12-1.71.35-2.38.23-.67.55-1.22.95-1.64.4-.42.88-.71,1.43-.87.55-.16,1.13-.2,1.75-.12.84.11,1.46.4,1.87.9.41.49.61,1.08.61,1.76,0,.35-.05.69-.14,1.01-.09.32-.23.58-.42.8-.22-.12-.47-.2-.73-.23-.43-.05-.79.05-1.08.31-.29.26-.43.68-.43,1.27Z"/>
      <path d="m107.15,10.01c.45,0,.77.16.96.51.2.35.29.86.29,1.54,0,.31-.03.68-.1,1.11-.07.44-.14.76-.24.98-1.01.03-1.51.04-2.52.04v16.67c0,.64-.38,1.19-.88,1.27,0,0,0,0-.01,0-.44.07-.86.1-1.23.09-.82-.01-1.43-.19-1.84-.53-.41-.33-.61-1.03-.61-2.09,0-6.21,0-9.31,0-15.51-.64-.03-.96-.04-1.59-.08-.47-.03-.79-.23-.98-.6-.19-.38-.28-.92-.28-1.62,0-.28.03-.63.08-1.05.06-.42.13-.73.22-.94,3.49.22,5.23.27,8.72.2Z"/>
      <path d="m117.71,17.66v-4.34c-4.06.59-6.09.74-10.14.84-.47.01-.79-.17-.98-.53-.19-.36-.28-.9-.28-1.6,0-.28.03-.63.08-1.06s.13-.74.22-.95c6.91-.1,10.36-.41,17.27-2.02.45-.1.77,0,.96.3.2.3.29.8.29,1.48,0,.31-.03.68-.1,1.14-.07.45-.14.79-.24,1.03-1.01.25-1.51.36-2.52.58,0,6.67,0,10,0,16.67,0,.64-.38,1.27-.88,1.45,0,0,0,0-.01,0-.44.16-.86.27-1.23.34-.82.15-1.43.09-1.84-.17-.41-.25-.61-.91-.61-1.97v-6.73c-1.5.22-2.25.31-3.74.46-.65.06-.98.54-.98,1.43v1.73c-.32.24-.62.42-.92.55-.3.13-.61.2-.92.22-.37.02-.74-.04-1.09-.2-.35-.16-.66-.4-.92-.73-.26-.33-.47-.74-.63-1.23-.16-.49-.24-1.06-.24-1.72,0-1.27.3-2.28.91-3.05.61-.77,1.43-1.17,2.47-1.25,2.43-.17,3.64-.3,6.06-.65Z"/>
      <path d="m132.21,5.51c.45-.16.77-.11.96.17.2.28.29.76.29,1.44,0,.31-.03.69-.1,1.15,0,.02,0,.04,0,.06-.08.57-.47,1.09-.9,1.26-.74.27-1.11.41-1.85.66v16.67c0,.65-.38,1.32-.89,1.57,0,0,0,0,0,0-.45.22-.86.38-1.23.49-.82.25-1.44.26-1.84.06-.41-.2-.61-.84-.61-1.9v-15.51c-.64.17-.96.25-1.59.41-.47.11-.79,0-.98-.32-.19-.32-.28-.84-.28-1.54,0-.28.03-.64.08-1.08.06-.44.13-.77.22-1,3.49-.79,5.23-1.3,8.72-2.58Z"/>
    </g>
  </g>
</svg>